<svg xmlns="http://www.w3.org/2000/svg" viewBox="0 0 100 100" width="100" height="100">
  <!-- Background circle -->
  <circle cx="50" cy="50" r="48" fill="#673AB7" stroke="#512DA8" stroke-width="2"/>
  
  <!-- Shield shape -->
  <path d="M 50 20 L 70 30 L 70 50 Q 70 70 50 80 Q 30 70 30 50 L 30 30 Z" 
        fill="#9575CD" stroke="#7E57C2" stroke-width="1.5"/>
  
  <!-- Inner shield detail -->
  <path d="M 50 28 L 65 35 L 65 50 Q 65 65 50 72 Q 35 65 35 50 L 35 35 Z" 
        fill="#B39DDB" stroke="#9575CD" stroke-width="1"/>
  
  <!-- AI/Network nodes -->
  <circle cx="50" cy="45" r="3" fill="#FFC107"/>
  <circle cx="42" cy="50" r="2" fill="#FFD54F"/>
  <circle cx="58" cy="50" r="2" fill="#FFD54F"/>
  <circle cx="46" cy="56" r="2" fill="#FFE082"/>
  <circle cx="54" cy="56" r="2" fill="#FFE082"/>
  
  <!-- Connecting lines -->
  <line x1="50" y1="45" x2="42" y2="50" stroke="#FFC107" stroke-width="1" opacity="0.6"/>
  <line x1="50" y1="45" x2="58" y2="50" stroke="#FFC107" stroke-width="1" opacity="0.6"/>
  <line x1="42" y1="50" x2="46" y2="56" stroke="#FFD54F" stroke-width="1" opacity="0.6"/>
  <line x1="58" y1="50" x2="54" y2="56" stroke="#FFD54F" stroke-width="1" opacity="0.6"/>
</svg>
